# xmcd CD database file
#
# Track frame offsets:
#	150
#	16356
#	28067
#	48594
#	67704
#	79021
#	103258
#	121903
#	144101
#	163758
#	187697
#	208064
#	230126
#	252789
#
# Disc length: 3583 seconds
#
# Revision: 0
# Processed by: cddbd v1.5.1PL0 Copyright (c) Steve Scherf et al.
# Submitted via: CDex 1.51
#
DISCID=b50dfd0e
DTITLE=Mark Lowry - The Best Of Mark Lowry
DYEAR=2004
DGENRE=Country
TTITLE0=Bein' Happy
TTITLE1=God Help The USA
TTITLE2=Sweet Beulah Land
TTITLE3=Look For Me
TTITLE4=Search Me, Lord
TTITLE5=Things To Do
TTITLE6=Home
TTITLE7=Goin' Up Yonder
TTITLE8=Satisfied
TTITLE9=I Don't Belong
TTITLE10=Mary, Did You Know?
TTITLE11=I Do Believe
TTITLE12=You Needed Me
TTITLE13=I Thirst
EXTD=YEAR: 2004
EXTT0=
EXTT1=
EXTT2=
EXTT3=
EXTT4=
EXTT5=
EXTT6=
EXTT7=
EXTT8=
EXTT9=
EXTT10=
EXTT11=
EXTT12=
EXTT13=
PLAYORDER=
